Coordinates
version=1
nRows=13
nColumns=40
inDegrees=yes

Units are S.I. units (second, meters, Newtons, ...)
Angles are in degrees.

endheader
time	pelvis_tilt	pelvis_list	pelvis_rotation	pelvis_tx	pelvis_ty	pelvis_tz	hip_flexion_r	hip_adduction_r	hip_rotation_r	knee_angle_r	knee_angle_r_beta	ankle_angle_r	subtalar_angle_r	mtp_angle_r	hip_flexion_l	hip_adduction_l	hip_rotation_l	knee_angle_l	knee_angle_l_beta	ankle_angle_l	subtalar_angle_l	mtp_angle_l	lumbar_extension	lumbar_bending	lumbar_rotation	arm_flex_r	arm_add_r	arm_rot_r	elbow_flex_r	pro_sup_r	wrist_flex_r	wrist_dev_r	arm_flex_l	arm_add_l	arm_rot_l	elbow_flex_l	pro_sup_l	wrist_flex_l	wrist_dev_l
     38.53000000	     -2.74744580	     -4.01640222	      1.12206813	      0.90318130	      0.91935491	      0.48099101	     22.32884754	      0.54683546	    -13.40345767	     24.25654773	     24.25654773	      6.02680839	     -8.65725062	     -4.65846063	      9.02133046	     -9.09661488	     -2.60119710	     46.17370502	     46.17370502	     15.06984019	    -17.94730261	      1.83465765	    -10.55561985	      8.53120391	      0.79127673	      8.39755006	    -13.50939162	    -10.00358485	     37.52784242	     45.85683552	      0.00000000	      0.00000000	     -4.87456952	    -11.20092396	     -3.88257749	     62.11315296	     46.85160939	      0.00000000	      0.00000000
     38.54371429	     -2.63989519	     -4.30364246	      1.31788322	      0.90266142	      0.92032454	      0.48392024	     21.53043538	      1.03425084	    -13.79921430	     23.83030637	     23.83030637	      6.43970391	     -8.34773316	     -4.77818103	     11.07253281	     -9.94377075	     -2.66829073	     49.86501801	     49.86501801	     13.82915405	    -18.58902741	      2.54784643	    -10.74898645	      8.85694786	      1.19025117	      9.49560970	    -13.68892726	     -9.86917265	     37.99306690	     45.83899000	      0.00000000	      0.00000000	     -4.82693531	    -11.09037541	     -3.79146615	     62.08724746	     46.84664258	      0.00000000	      0.00000000
     38.55742857	     -2.71490676	     -4.44492150	      1.52240681	      0.90181431	      0.92114072	      0.48658821	     20.89298559	      1.29493962	    -14.38263657	     23.32986144	     23.32986144	      6.76532145	     -7.58250695	     -5.27131887	     13.61842553	    -10.31155343	     -2.19544464	     53.79505356	     53.79505356	     15.68388709	    -18.67814646	     11.51327149	    -10.73254181	      8.96014690	      1.28624890	     10.52340856	    -14.04005279	     -8.31544261	     39.07198871	     45.72106866	      0.00000000	      0.00000000	     -5.10004607	    -11.16885666	     -3.58009637	     62.15392991	     46.84942515	      0.00000000	      0.00000000
     38.57114286	     -2.69921708	     -4.70920793	      1.65776111	      0.90086376	      0.92198142	      0.48951838	     20.18427874	      1.79196059	    -14.73064971	     22.82079751	     22.82079751	      7.09693182	     -7.23387338	     -5.34532884	     15.66865587	    -11.16156980	     -2.36720916	     56.51861533	     56.51861533	     14.81548243	    -19.01312876	     12.07824539	    -10.85663826	      9.16165541	      1.71225950	     11.67058730	    -14.23333857	     -8.20621847	     39.50724566	     45.70703207	      0.00000000	      0.00000000	     -5.15128481	    -11.14797683	     -3.54265931	     62.10168191	     46.84777327	      0.00000000	      0.00000000
     38.58485714	     -2.72184134	     -4.93223597	      1.78528264	      0.89977107	      0.92279559	      0.49235163	     19.49851207	      2.24075834	    -15.09931244	     22.26224350	     22.26224350	      7.35753145	     -6.77701453	     -5.42068546	     17.70917991	    -11.92222284	     -2.48193530	     58.72584987	     58.72584987	     14.40120409	    -19.21329921	     13.02459331	    -10.93960972	      9.32400266	      2.06737762	     12.84488660	    -14.41258103	     -8.04791635	     39.96645796	     45.68961892	      0.00000000	      0.00000000	     -5.27385969	    -11.18836495	     -3.52044802	     62.03399877	     46.84606626	      0.00000000	      0.00000000
     38.59857143	     -2.72856267	     -4.98442892	      1.93175980	      0.89850021	      0.92377691	      0.49481160	     18.77484751	      2.43765987	    -15.64300973	     21.67851855	     21.67851855	      7.58130015	     -5.88404930	     -5.80854556	     19.76759418	    -12.22542436	     -2.28007497	     60.56268830	     60.56268830	     15.86728366	    -19.25402997	     18.70237731	    -11.05130913	      9.27447063	      2.02613217	     14.24100661	    -14.65218881	     -6.64313974	     40.37979265	     45.61482971	      0.00000000	      0.00000000	     -5.65724885	    -11.28296488	     -3.80956797	     62.01754803	     46.87928547	      0.00000000	      0.00000000
     38.61228571	     -2.79904204	     -5.07449041	      2.05696645	      0.89708791	      0.92456682	      0.49727776	     18.19874831	      2.75224030	    -15.84296561	     21.17683819	     21.17683819	      7.78076276	     -5.66799912	     -5.80224036	     21.61100691	    -12.69283629	     -2.34336355	     61.43056384	     61.43056384	     15.70863364	    -19.34421922	     18.88907464	    -11.10054188	      9.24157533	      2.42995757	     15.32334320	    -14.90408852	     -6.47977428	     40.71038761	     45.60239233	      0.00000000	      0.00000000	     -5.74617659	    -11.32126480	     -3.89260381	     61.94481953	     46.88616355	      0.00000000	      0.00000000
     38.62600000	     -2.73006037	     -4.90295908	      2.20360914	      0.89576231	      0.92561343	      0.49956049	     17.59238869	      2.76600657	    -15.90225612	     20.96248825	     20.96248825	      8.12831744	     -5.64405721	     -5.85726088	     23.03406655	    -12.78892978	     -2.45895671	     61.47688790	     61.47688790	     15.63068076	    -19.35946226	     18.90485684	    -11.33371485	      8.88896466	      2.96207789	     16.20052394	    -15.05199386	     -6.45250052	     40.99774762	     45.59618095	      0.00000000	      0.00000000	     -5.86013750	    -11.42404950	     -3.94781377	     61.86700418	     46.88813897	      0.00000000	      0.00000000
     38.63971429	     -2.87452595	     -4.97050514	      2.40333883	      0.89409699	      0.92651034	      0.50138653	     16.92339354	      2.99529963	    -16.39313073	     20.10556953	     20.10556953	      8.12959164	     -4.80475557	     -6.03519823	     24.75126848	    -12.91393140	     -2.23444509	     61.11392494	     61.11392494	     16.25579750	    -19.37536059	     20.66429285	    -11.28647040	      8.93143936	      2.50524400	     18.06185849	    -15.47005648	     -4.08658998	     40.88016112	     45.50582425	      0.00000000	      0.00000000	     -6.12878633	    -11.20255348	     -5.31686672	     61.28172238	     46.99719564	      0.00000000	      0.00000000
     38.65342857	     -2.91012553	     -4.85190818	      2.61566918	      0.89253533	      0.92750462	      0.50308166	     16.28622622	      3.06755390	    -16.48546621	     19.54987077	     19.54987077	      8.29361835	     -4.68805072	     -5.95699327	     26.00734951	    -12.81679550	     -2.16898140	     59.88766876	     59.88766876	     16.30531459	    -19.37164632	     20.57625571	    -11.39092645	      8.71672887	      2.67295750	     19.12573284	    -15.67117710	     -3.92475494	     41.27161242	     45.49252941	      0.00000000	      0.00000000	     -6.27069729	    -11.31971094	     -5.44482867	     61.14830835	     47.00444980	      0.00000000	      0.00000000
     38.66714286	     -3.03333036	     -4.68869659	      2.84990706	      0.89083766	      0.92822010	      0.50446967	     15.86860114	      3.02831208	    -16.59211698	     19.22586372	     19.22586372	      8.47224576	     -4.67791014	     -5.93703138	     27.20008898	    -12.56487537	     -2.07756830	     58.11233838	     58.11233838	     16.40701959	    -19.34595469	     20.58268883	    -11.40448679	      8.47586612	      2.92025533	     20.11993738	    -16.02749741	     -3.89992929	     41.61657770	     45.48604704	      0.00000000	      0.00000000	     -6.30402388	    -11.38421511	     -5.53399852	     61.06233970	     47.00911178	      0.00000000	      0.00000000
     38.68085714	     -2.99422867	     -4.53718741	      3.12465854	      0.88932733	      0.92925336	      0.50565523	     15.08655481	      3.03684508	    -16.79285646	     18.56030779	     18.56030779	      8.62189440	     -4.38906526	     -5.91122813	     27.94224510	    -12.25854966	     -1.97634649	     55.67181299	     55.67181299	     16.36590888	    -19.31072367	     20.30930615	    -11.56688263	      8.27090693	      2.82451510	     21.20267672	    -16.18146805	     -3.39531314	     42.03937703	     45.45599358	      0.00000000	      0.00000000	     -6.39776494	    -11.38792559	     -6.00161690	     60.50038432	     47.03661672	      0.00000000	      0.00000000
     38.69457143	     -3.06657956	     -4.36278388	      3.40039199	      0.88769802	      0.92993040	      0.50655553	     14.57637099	      2.96706710	    -16.91105584	     18.17199528	     18.17199528	      8.78574780	     -4.31732701	     -5.93582858	     28.63556380	    -11.85003545	     -1.88254010	     52.79595345	     52.79595345	     16.25576855	    -19.26519563	     19.99252773	    -11.64774842	      8.08238190	      2.85611580	     22.12062248	    -16.49643780	     -2.90040929	     42.40083856	     45.42843378	      0.00000000	      0.00000000	     -6.41325646	    -11.33152212	     -6.49406435	     60.10225089	     47.06779076	      0.00000000	      0.00000000
